<?xml version="1.0" encoding="UTF-8" standalone="no"?>
<!DOCTYPE svg PUBLIC "-//W3C//DTD SVG 1.1//EN"
 "http://www.w3.org/Graphics/SVG/1.1/DTD/svg11.dtd">
<!-- Generated by graphviz version 2.43.0 (0)
 -->
<!-- Title: %3 Pages: 1 -->
<svg width="4249pt" height="548pt"
 viewBox="0.00 0.00 4249.37 548.00" xmlns="http://www.w3.org/2000/svg" xmlns:xlink="http://www.w3.org/1999/xlink">
<g id="graph0" class="graph" transform="scale(1 1) rotate(0) translate(4 544)">
<title>%3</title>
<polygon fill="white" stroke="transparent" points="-4,4 -4,-544 4245.37,-544 4245.37,4 -4,4"/>
<!-- [root] module.vpc.data.google_billing_account.acct (expand) -->
<g id="node1" class="node">
<title>[root] module.vpc.data.google_billing_account.acct (expand)</title>
<polygon fill="none" stroke="black" points="3140,-252 2806,-252 2806,-216 3140,-216 3140,-252"/>
<text text-anchor="middle" x="2973" y="-230.3" font-family="Times,serif" font-size="14.00">module.vpc.data.google_billing_account.acct</text>
</g>
<!-- [root] module.vpc.provider[&quot;registry.terraform.io/hashicorp/google&quot;] -->
<g id="node8" class="node">
<title>[root] module.vpc.provider[&quot;registry.terraform.io/hashicorp/google&quot;]</title>
<polygon fill="none" stroke="black" points="2522,-180 2099.38,-162 2522,-144 2944.62,-162 2522,-180"/>
<text text-anchor="middle" x="2522" y="-158.3" font-family="Times,serif" font-size="14.00">module.vpc.provider[&quot;registry.terraform.io/hashicorp/google&quot;]</text>
</g>
<!-- [root] module.vpc.data.google_billing_account.acct (expand)&#45;&gt;[root] module.vpc.provider[&quot;registry.terraform.io/hashicorp/google&quot;] -->
<g id="edge9" class="edge">
<title>[root] module.vpc.data.google_billing_account.acct (expand)&#45;&gt;[root] module.vpc.provider[&quot;registry.terraform.io/hashicorp/google&quot;]</title>
<path fill="none" stroke="black" d="M2863.25,-215.97C2788.29,-204.33 2689.93,-189.06 2618.07,-177.91"/>
<polygon fill="black" stroke="black" points="2618.53,-174.44 2608.11,-176.37 2617.46,-181.36 2618.53,-174.44"/>
</g>
<!-- [root] module.vpc.var.billing_acct (expand) -->
<g id="node20" class="node">
<title>[root] module.vpc.var.billing_acct (expand)</title>
<ellipse fill="none" stroke="black" cx="2947" cy="-90" rx="208.76" ry="18"/>
<text text-anchor="middle" x="2947" y="-86.3" font-family="Times,serif" font-size="14.00">[root] module.vpc.var.billing_acct (expand)</text>
</g>
<!-- [root] module.vpc.data.google_billing_account.acct (expand)&#45;&gt;[root] module.vpc.var.billing_acct (expand) -->
<g id="edge10" class="edge">
<title>[root] module.vpc.data.google_billing_account.acct (expand)&#45;&gt;[root] module.vpc.var.billing_acct (expand)</title>
<path fill="none" stroke="black" d="M2969.86,-215.87C2965.43,-191.67 2957.29,-147.21 2952.02,-118.39"/>
<polygon fill="black" stroke="black" points="2955.39,-117.4 2950.15,-108.19 2948.51,-118.66 2955.39,-117.4"/>
</g>
<!-- [root] module.vpc.google_compute_firewall.allow&#45;http (expand) -->
<g id="node2" class="node">
<title>[root] module.vpc.google_compute_firewall.allow&#45;http (expand)</title>
<polygon fill="none" stroke="black" points="1826.5,-324 1471.5,-324 1471.5,-288 1826.5,-288 1826.5,-324"/>
<text text-anchor="middle" x="1649" y="-302.3" font-family="Times,serif" font-size="14.00">module.vpc.google_compute_firewall.allow&#45;http</text>
</g>
<!-- [root] module.vpc.google_compute_network.vpcglobal (expand) -->
<g id="node3" class="node">
<title>[root] module.vpc.google_compute_network.vpcglobal (expand)</title>
<polygon fill="none" stroke="black" points="2119,-252 1763,-252 1763,-216 2119,-216 2119,-252"/>
<text text-anchor="middle" x="1941" y="-230.3" font-family="Times,serif" font-size="14.00">module.vpc.google_compute_network.vpcglobal</text>
</g>
<!-- [root] module.vpc.google_compute_firewall.allow&#45;http (expand)&#45;&gt;[root] module.vpc.google_compute_network.vpcglobal (expand) -->
<g id="edge11" class="edge">
<title>[root] module.vpc.google_compute_firewall.allow&#45;http (expand)&#45;&gt;[root] module.vpc.google_compute_network.vpcglobal (expand)</title>
<path fill="none" stroke="black" d="M1720.06,-287.97C1762.35,-277.83 1816.16,-264.93 1860.09,-254.4"/>
<polygon fill="black" stroke="black" points="1860.97,-257.78 1869.88,-252.05 1859.34,-250.98 1860.97,-257.78"/>
</g>
<!-- [root] module.vpc.var.firewall_name (expand) -->
<g id="node21" class="node">
<title>[root] module.vpc.var.firewall_name (expand)</title>
<ellipse fill="none" stroke="black" cx="1700" cy="-90" rx="220.16" ry="18"/>
<text text-anchor="middle" x="1700" y="-86.3" font-family="Times,serif" font-size="14.00">[root] module.vpc.var.firewall_name (expand)</text>
</g>
<!-- [root] module.vpc.google_compute_firewall.allow&#45;http (expand)&#45;&gt;[root] module.vpc.var.firewall_name (expand) -->
<g id="edge12" class="edge">
<title>[root] module.vpc.google_compute_firewall.allow&#45;http (expand)&#45;&gt;[root] module.vpc.var.firewall_name (expand)</title>
<path fill="none" stroke="black" d="M1648.68,-287.55C1648.64,-257.42 1650.84,-194.05 1668,-144 1671.23,-134.59 1676.3,-125.06 1681.47,-116.72"/>
<polygon fill="black" stroke="black" points="1684.49,-118.5 1687.02,-108.21 1678.63,-114.67 1684.49,-118.5"/>
</g>
<!-- [root] module.vpc.var.network_tags (expand) -->
<g id="node22" class="node">
<title>[root] module.vpc.var.network_tags (expand)</title>
<ellipse fill="none" stroke="black" cx="1243" cy="-90" rx="218.26" ry="18"/>
<text text-anchor="middle" x="1243" y="-86.3" font-family="Times,serif" font-size="14.00">[root] module.vpc.var.network_tags (expand)</text>
</g>
<!-- [root] module.vpc.google_compute_firewall.allow&#45;http (expand)&#45;&gt;[root] module.vpc.var.network_tags (expand) -->
<g id="edge13" class="edge">
<title>[root] module.vpc.google_compute_firewall.allow&#45;http (expand)&#45;&gt;[root] module.vpc.var.network_tags (expand)</title>
<path fill="none" stroke="black" d="M1616.46,-287.85C1543.08,-249.17 1364.83,-155.21 1284.03,-112.62"/>
<polygon fill="black" stroke="black" points="1285.61,-109.5 1275.13,-107.94 1282.34,-115.69 1285.61,-109.5"/>
</g>
<!-- [root] module.vpc.google_compute_network.vpcglobal (expand)&#45;&gt;[root] module.vpc.provider[&quot;registry.terraform.io/hashicorp/google&quot;] -->
<g id="edge14" class="edge">
<title>[root] module.vpc.google_compute_network.vpcglobal (expand)&#45;&gt;[root] module.vpc.provider[&quot;registry.terraform.io/hashicorp/google&quot;]</title>
<path fill="none" stroke="black" d="M2082.39,-215.97C2182.2,-203.94 2314.25,-188.03 2407.48,-176.8"/>
<polygon fill="black" stroke="black" points="2408.01,-180.26 2417.52,-175.59 2407.17,-173.31 2408.01,-180.26"/>
</g>
<!-- [root] module.vpc.var.vpc_name (expand) -->
<g id="node23" class="node">
<title>[root] module.vpc.var.vpc_name (expand)</title>
<ellipse fill="none" stroke="black" cx="1879" cy="-162" rx="202.26" ry="18"/>
<text text-anchor="middle" x="1879" y="-158.3" font-family="Times,serif" font-size="14.00">[root] module.vpc.var.vpc_name (expand)</text>
</g>
<!-- [root] module.vpc.google_compute_network.vpcglobal (expand)&#45;&gt;[root] module.vpc.var.vpc_name (expand) -->
<g id="edge15" class="edge">
<title>[root] module.vpc.google_compute_network.vpcglobal (expand)&#45;&gt;[root] module.vpc.var.vpc_name (expand)</title>
<path fill="none" stroke="black" d="M1925.67,-215.7C1918.24,-207.3 1909.18,-197.07 1901.02,-187.86"/>
<polygon fill="black" stroke="black" points="1903.4,-185.27 1894.15,-180.1 1898.16,-189.91 1903.4,-185.27"/>
</g>
<!-- [root] module.vpc.google_project.team3&#45;gcp&#45;project (expand) -->
<g id="node4" class="node">
<title>[root] module.vpc.google_project.team3&#45;gcp&#45;project (expand)</title>
<polygon fill="none" stroke="black" points="3362.5,-324 3021.5,-324 3021.5,-288 3362.5,-288 3362.5,-324"/>
<text text-anchor="middle" x="3192" y="-302.3" font-family="Times,serif" font-size="14.00">module.vpc.google_project.team3&#45;gcp&#45;project</text>
</g>
<!-- [root] module.vpc.google_project.team3&#45;gcp&#45;project (expand)&#45;&gt;[root] module.vpc.data.google_billing_account.acct (expand) -->
<g id="edge16" class="edge">
<title>[root] module.vpc.google_project.team3&#45;gcp&#45;project (expand)&#45;&gt;[root] module.vpc.data.google_billing_account.acct (expand)</title>
<path fill="none" stroke="black" d="M3138.71,-287.97C3107.84,-278.1 3068.8,-265.62 3036.37,-255.25"/>
<polygon fill="black" stroke="black" points="3037.12,-251.82 3026.53,-252.11 3034.99,-258.49 3037.12,-251.82"/>
</g>
<!-- [root] module.vpc.random_password.password (expand) -->
<g id="node9" class="node">
<title>[root] module.vpc.random_password.password (expand)</title>
<polygon fill="none" stroke="black" points="3961.5,-252 3656.5,-252 3656.5,-216 3961.5,-216 3961.5,-252"/>
<text text-anchor="middle" x="3809" y="-230.3" font-family="Times,serif" font-size="14.00">module.vpc.random_password.password</text>
</g>
<!-- [root] module.vpc.google_project.team3&#45;gcp&#45;project (expand)&#45;&gt;[root] module.vpc.random_password.password (expand) -->
<g id="edge17" class="edge">
<title>[root] module.vpc.google_project.team3&#45;gcp&#45;project (expand)&#45;&gt;[root] module.vpc.random_password.password (expand)</title>
<path fill="none" stroke="black" d="M3342.15,-287.97C3435.08,-277.42 3554.32,-263.89 3649.02,-253.15"/>
<polygon fill="black" stroke="black" points="3649.44,-256.62 3658.98,-252.02 3648.65,-249.67 3649.44,-256.62"/>
</g>
<!-- [root] module.vpc.var.labels (expand) -->
<g id="node24" class="node">
<title>[root] module.vpc.var.labels (expand)</title>
<ellipse fill="none" stroke="black" cx="3184" cy="-162" rx="183.07" ry="18"/>
<text text-anchor="middle" x="3184" y="-158.3" font-family="Times,serif" font-size="14.00">[root] module.vpc.var.labels (expand)</text>
</g>
<!-- [root] module.vpc.google_project.team3&#45;gcp&#45;project (expand)&#45;&gt;[root] module.vpc.var.labels (expand) -->
<g id="edge18" class="edge">
<title>[root] module.vpc.google_project.team3&#45;gcp&#45;project (expand)&#45;&gt;[root] module.vpc.var.labels (expand)</title>
<path fill="none" stroke="black" d="M3191.04,-287.87C3189.67,-263.67 3187.17,-219.21 3185.54,-190.39"/>
<polygon fill="black" stroke="black" points="3189.03,-189.98 3184.97,-180.19 3182.04,-190.37 3189.03,-189.98"/>
</g>
<!-- [root] module.vpc.var.project_name (expand) -->
<g id="node25" class="node">
<title>[root] module.vpc.var.project_name (expand)</title>
<ellipse fill="none" stroke="black" cx="3418" cy="-234" rx="218.26" ry="18"/>
<text text-anchor="middle" x="3418" y="-230.3" font-family="Times,serif" font-size="14.00">[root] module.vpc.var.project_name (expand)</text>
</g>
<!-- [root] module.vpc.google_project.team3&#45;gcp&#45;project (expand)&#45;&gt;[root] module.vpc.var.project_name (expand) -->
<g id="edge19" class="edge">
<title>[root] module.vpc.google_project.team3&#45;gcp&#45;project (expand)&#45;&gt;[root] module.vpc.var.project_name (expand)</title>
<path fill="none" stroke="black" d="M3247,-287.97C3279.58,-277.87 3320.99,-265.05 3354.9,-254.54"/>
<polygon fill="black" stroke="black" points="3356.19,-257.81 3364.71,-251.51 3354.12,-251.12 3356.19,-257.81"/>
</g>
<!-- [root] module.vpc.null_resource.enable&#45;apis (expand) -->
<g id="node5" class="node">
<title>[root] module.vpc.null_resource.enable&#45;apis (expand)</title>
<polygon fill="none" stroke="black" points="600,-396 316,-396 316,-360 600,-360 600,-396"/>
<text text-anchor="middle" x="458" y="-374.3" font-family="Times,serif" font-size="14.00">module.vpc.null_resource.enable&#45;apis</text>
</g>
<!-- [root] provider[&quot;registry.terraform.io/hashicorp/null&quot;] -->
<g id="node12" class="node">
<title>[root] provider[&quot;registry.terraform.io/hashicorp/null&quot;]</title>
<polygon fill="none" stroke="black" points="758,-324 433.57,-306 758,-288 1082.43,-306 758,-324"/>
<text text-anchor="middle" x="758" y="-302.3" font-family="Times,serif" font-size="14.00">provider[&quot;registry.terraform.io/hashicorp/null&quot;]</text>
</g>
<!-- [root] module.vpc.null_resource.enable&#45;apis (expand)&#45;&gt;[root] provider[&quot;registry.terraform.io/hashicorp/null&quot;] -->
<g id="edge21" class="edge">
<title>[root] module.vpc.null_resource.enable&#45;apis (expand)&#45;&gt;[root] provider[&quot;registry.terraform.io/hashicorp/null&quot;]</title>
<path fill="none" stroke="black" d="M531,-359.97C579.1,-348.74 641.67,-334.14 688.94,-323.11"/>
<polygon fill="black" stroke="black" points="689.84,-326.5 698.78,-320.82 688.25,-319.68 689.84,-326.5"/>
</g>
<!-- [root] module.vpc (expand) -->
<g id="node26" class="node">
<title>[root] module.vpc (expand)</title>
<ellipse fill="none" stroke="black" cx="2153" cy="-18" rx="135.68" ry="18"/>
<text text-anchor="middle" x="2153" y="-14.3" font-family="Times,serif" font-size="14.00">[root] module.vpc (expand)</text>
</g>
<!-- [root] module.vpc.null_resource.enable&#45;apis (expand)&#45;&gt;[root] module.vpc (expand) -->
<g id="edge20" class="edge">
<title>[root] module.vpc.null_resource.enable&#45;apis (expand)&#45;&gt;[root] module.vpc (expand)</title>
<path fill="none" stroke="black" d="M445.07,-359.68C438.19,-349.7 430.11,-336.66 425,-324 409.86,-286.49 406,-275.45 406,-235 406,-235 406,-235 406,-161 406,-80.63 1596.11,-36.19 2011.77,-23.13"/>
<polygon fill="black" stroke="black" points="2012.16,-26.62 2022.05,-22.8 2011.94,-19.62 2012.16,-26.62"/>
</g>
<!-- [root] module.vpc.null_resource.set&#45;project (expand) -->
<g id="node6" class="node">
<title>[root] module.vpc.null_resource.set&#45;project (expand)</title>
<polygon fill="none" stroke="black" points="898,-396 618,-396 618,-360 898,-360 898,-396"/>
<text text-anchor="middle" x="758" y="-374.3" font-family="Times,serif" font-size="14.00">module.vpc.null_resource.set&#45;project</text>
</g>
<!-- [root] module.vpc.null_resource.set&#45;project (expand)&#45;&gt;[root] module.vpc.google_project.team3&#45;gcp&#45;project (expand) -->
<g id="edge22" class="edge">
<title>[root] module.vpc.null_resource.set&#45;project (expand)&#45;&gt;[root] module.vpc.google_project.team3&#45;gcp&#45;project (expand)</title>
<path fill="none" stroke="black" d="M898.35,-360.63C901.26,-360.41 904.14,-360.2 907,-360 1314.72,-332.07 2545.63,-314.77 3011.08,-309.08"/>
<polygon fill="black" stroke="black" points="3011.3,-312.58 3021.26,-308.96 3011.22,-305.58 3011.3,-312.58"/>
</g>
<!-- [root] module.vpc.null_resource.set&#45;project (expand)&#45;&gt;[root] provider[&quot;registry.terraform.io/hashicorp/null&quot;] -->
<g id="edge23" class="edge">
<title>[root] module.vpc.null_resource.set&#45;project (expand)&#45;&gt;[root] provider[&quot;registry.terraform.io/hashicorp/null&quot;]</title>
<path fill="none" stroke="black" d="M758,-359.7C758,-351.98 758,-342.71 758,-334.11"/>
<polygon fill="black" stroke="black" points="761.5,-334.1 758,-324.1 754.5,-334.1 761.5,-334.1"/>
</g>
<!-- [root] module.vpc.null_resource.unset&#45;project (expand) -->
<g id="node7" class="node">
<title>[root] module.vpc.null_resource.unset&#45;project (expand)</title>
<polygon fill="none" stroke="black" points="298,-396 0,-396 0,-360 298,-360 298,-396"/>
<text text-anchor="middle" x="149" y="-374.3" font-family="Times,serif" font-size="14.00">module.vpc.null_resource.unset&#45;project</text>
</g>
<!-- [root] module.vpc.null_resource.unset&#45;project (expand)&#45;&gt;[root] provider[&quot;registry.terraform.io/hashicorp/null&quot;] -->
<g id="edge25" class="edge">
<title>[root] module.vpc.null_resource.unset&#45;project (expand)&#45;&gt;[root] provider[&quot;registry.terraform.io/hashicorp/null&quot;]</title>
<path fill="none" stroke="black" d="M297.2,-359.97C405.44,-347.52 549.84,-330.93 647.95,-319.65"/>
<polygon fill="black" stroke="black" points="648.35,-323.13 657.89,-318.51 647.55,-316.17 648.35,-323.13"/>
</g>
<!-- [root] module.vpc.null_resource.unset&#45;project (expand)&#45;&gt;[root] module.vpc (expand) -->
<g id="edge24" class="edge">
<title>[root] module.vpc.null_resource.unset&#45;project (expand)&#45;&gt;[root] module.vpc (expand)</title>
<path fill="none" stroke="black" d="M174.79,-359.94C207.3,-336.16 259,-289.73 259,-235 259,-235 259,-235 259,-161 259,3.82 455.76,-94.75 619,-72 884.3,-35.03 1678.97,-23.44 2007.94,-20.17"/>
<polygon fill="black" stroke="black" points="2008.05,-23.67 2018.02,-20.07 2007.98,-16.67 2008.05,-23.67"/>
</g>
<!-- [root] module.vpc.var.region (expand) -->
<g id="node28" class="node">
<title>[root] module.vpc.var.region (expand)</title>
<ellipse fill="none" stroke="black" cx="2534" cy="-90" rx="185.77" ry="18"/>
<text text-anchor="middle" x="2534" y="-86.3" font-family="Times,serif" font-size="14.00">[root] module.vpc.var.region (expand)</text>
</g>
<!-- [root] module.vpc.provider[&quot;registry.terraform.io/hashicorp/google&quot;]&#45;&gt;[root] module.vpc.var.region (expand) -->
<g id="edge33" class="edge">
<title>[root] module.vpc.provider[&quot;registry.terraform.io/hashicorp/google&quot;]&#45;&gt;[root] module.vpc.var.region (expand)</title>
<path fill="none" stroke="black" d="M2524.9,-144.05C2526.23,-136.35 2527.82,-127.03 2529.31,-118.36"/>
<polygon fill="black" stroke="black" points="2532.8,-118.72 2531.04,-108.28 2525.9,-117.54 2532.8,-118.72"/>
</g>
<!-- [root] module.vpc.var.zone (expand) -->
<g id="node29" class="node">
<title>[root] module.vpc.var.zone (expand)</title>
<ellipse fill="none" stroke="black" cx="2153" cy="-90" rx="177.37" ry="18"/>
<text text-anchor="middle" x="2153" y="-86.3" font-family="Times,serif" font-size="14.00">[root] module.vpc.var.zone (expand)</text>
</g>
<!-- [root] module.vpc.provider[&quot;registry.terraform.io/hashicorp/google&quot;]&#45;&gt;[root] module.vpc.var.zone (expand) -->
<g id="edge34" class="edge">
<title>[root] module.vpc.provider[&quot;registry.terraform.io/hashicorp/google&quot;]&#45;&gt;[root] module.vpc.var.zone (expand)</title>
<path fill="none" stroke="black" d="M2448.66,-147.09C2389.4,-135.85 2305.76,-119.98 2242.56,-107.99"/>
<polygon fill="black" stroke="black" points="2243.07,-104.52 2232.6,-106.1 2241.77,-111.4 2243.07,-104.52"/>
</g>
<!-- [root] provider[&quot;registry.terraform.io/hashicorp/random&quot;] -->
<g id="node13" class="node">
<title>[root] provider[&quot;registry.terraform.io/hashicorp/random&quot;]</title>
<polygon fill="none" stroke="black" points="3811,-180 3460.6,-162 3811,-144 4161.4,-162 3811,-180"/>
<text text-anchor="middle" x="3811" y="-158.3" font-family="Times,serif" font-size="14.00">provider[&quot;registry.terraform.io/hashicorp/random&quot;]</text>
</g>
<!-- [root] module.vpc.random_password.password (expand)&#45;&gt;[root] provider[&quot;registry.terraform.io/hashicorp/random&quot;] -->
<g id="edge36" class="edge">
<title>[root] module.vpc.random_password.password (expand)&#45;&gt;[root] provider[&quot;registry.terraform.io/hashicorp/random&quot;]</title>
<path fill="none" stroke="black" d="M3809.49,-215.7C3809.71,-207.98 3809.98,-198.71 3810.23,-190.11"/>
<polygon fill="black" stroke="black" points="3813.72,-190.2 3810.51,-180.1 3806.73,-190 3813.72,-190.2"/>
</g>
<!-- [root] module.vpc.random_password.password (expand)&#45;&gt;[root] module.vpc (expand) -->
<g id="edge35" class="edge">
<title>[root] module.vpc.random_password.password (expand)&#45;&gt;[root] module.vpc (expand)</title>
<path fill="none" stroke="black" d="M3672.87,-215.99C3580.92,-203.96 3472.64,-188.5 3452,-180 3427.01,-169.71 3425.76,-158.58 3403,-144 3347.38,-108.37 3336.54,-90.03 3273,-72 3181.49,-46.03 2576.81,-28.82 2295.93,-22.13"/>
<polygon fill="black" stroke="black" points="2295.75,-18.63 2285.67,-21.89 2295.58,-25.63 2295.75,-18.63"/>
</g>
<!-- [root] output.project_id -->
<g id="node10" class="node">
<title>[root] output.project_id</title>
<polygon fill="none" stroke="black" points="3487.5,-468 3354.5,-468 3354.5,-432 3493.5,-432 3493.5,-462 3487.5,-468"/>
<polyline fill="none" stroke="black" points="3487.5,-468 3487.5,-462 "/>
<polyline fill="none" stroke="black" points="3493.5,-462 3487.5,-462 "/>
<text text-anchor="middle" x="3424" y="-446.3" font-family="Times,serif" font-size="14.00">output.project_id</text>
</g>
<!-- [root] module.vpc.output.project_id (expand) -->
<g id="node17" class="node">
<title>[root] module.vpc.output.project_id (expand)</title>
<ellipse fill="none" stroke="black" cx="3809" cy="-378" rx="218.26" ry="18"/>
<text text-anchor="middle" x="3809" y="-374.3" font-family="Times,serif" font-size="14.00">[root] module.vpc.output.project_id (expand)</text>
</g>
<!-- [root] output.project_id&#45;&gt;[root] module.vpc.output.project_id (expand) -->
<g id="edge45" class="edge">
<title>[root] output.project_id&#45;&gt;[root] module.vpc.output.project_id (expand)</title>
<path fill="none" stroke="black" d="M3493.72,-436.32C3555.16,-425.15 3645.25,-408.77 3713.41,-396.38"/>
<polygon fill="black" stroke="black" points="3714.09,-399.81 3723.3,-394.58 3712.84,-392.93 3714.09,-399.81"/>
</g>
<!-- [root] output.vpc_name -->
<g id="node11" class="node">
<title>[root] output.vpc_name</title>
<polygon fill="none" stroke="black" points="2325.5,-468 2192.5,-468 2192.5,-432 2331.5,-432 2331.5,-462 2325.5,-468"/>
<polyline fill="none" stroke="black" points="2325.5,-468 2325.5,-462 "/>
<polyline fill="none" stroke="black" points="2331.5,-462 2325.5,-462 "/>
<text text-anchor="middle" x="2262" y="-446.3" font-family="Times,serif" font-size="14.00">output.vpc_name</text>
</g>
<!-- [root] module.vpc.output.vpc_name (expand) -->
<g id="node19" class="node">
<title>[root] module.vpc.output.vpc_name (expand)</title>
<ellipse fill="none" stroke="black" cx="2126" cy="-378" rx="218.26" ry="18"/>
<text text-anchor="middle" x="2126" y="-374.3" font-family="Times,serif" font-size="14.00">[root] module.vpc.output.vpc_name (expand)</text>
</g>
<!-- [root] output.vpc_name&#45;&gt;[root] module.vpc.output.vpc_name (expand) -->
<g id="edge46" class="edge">
<title>[root] output.vpc_name&#45;&gt;[root] module.vpc.output.vpc_name (expand)</title>
<path fill="none" stroke="black" d="M2228.73,-431.88C2210.4,-422.44 2187.47,-410.64 2167.93,-400.58"/>
<polygon fill="black" stroke="black" points="2169.42,-397.41 2158.93,-395.95 2166.22,-403.64 2169.42,-397.41"/>
</g>
<!-- [root] module.vpc (close) -->
<g id="node14" class="node">
<title>[root] module.vpc (close)</title>
<ellipse fill="none" stroke="black" cx="1649" cy="-450" rx="126.18" ry="18"/>
<text text-anchor="middle" x="1649" y="-446.3" font-family="Times,serif" font-size="14.00">[root] module.vpc (close)</text>
</g>
<!-- [root] module.vpc (close)&#45;&gt;[root] module.vpc.null_resource.enable&#45;apis (expand) -->
<g id="edge1" class="edge">
<title>[root] module.vpc (close)&#45;&gt;[root] module.vpc.null_resource.enable&#45;apis (expand)</title>
<path fill="none" stroke="black" d="M1527.16,-445.21C1334.66,-438.68 948.19,-423.39 610.23,-396.07"/>
<polygon fill="black" stroke="black" points="610.49,-392.58 600.24,-395.26 609.92,-399.56 610.49,-392.58"/>
</g>
<!-- [root] module.vpc (close)&#45;&gt;[root] module.vpc.null_resource.set&#45;project (expand) -->
<g id="edge2" class="edge">
<title>[root] module.vpc (close)&#45;&gt;[root] module.vpc.null_resource.set&#45;project (expand)</title>
<path fill="none" stroke="black" d="M1534.79,-442.35C1391.12,-433.64 1136.58,-417.08 908.52,-396.12"/>
<polygon fill="black" stroke="black" points="908.64,-392.62 898.36,-395.18 908,-399.59 908.64,-392.62"/>
</g>
<!-- [root] module.vpc (close)&#45;&gt;[root] module.vpc.null_resource.unset&#45;project (expand) -->
<g id="edge3" class="edge">
<title>[root] module.vpc (close)&#45;&gt;[root] module.vpc.null_resource.unset&#45;project (expand)</title>
<path fill="none" stroke="black" d="M1524.42,-446.9C1288.93,-442.3 762.14,-429.06 308.29,-396.06"/>
<polygon fill="black" stroke="black" points="308.48,-392.57 298.25,-395.33 307.97,-399.55 308.48,-392.57"/>
</g>
<!-- [root] module.vpc.output.firewall_name (expand) -->
<g id="node15" class="node">
<title>[root] module.vpc.output.firewall_name (expand)</title>
<ellipse fill="none" stroke="black" cx="1153" cy="-378" rx="237.46" ry="18"/>
<text text-anchor="middle" x="1153" y="-374.3" font-family="Times,serif" font-size="14.00">[root] module.vpc.output.firewall_name (expand)</text>
</g>
<!-- [root] module.vpc (close)&#45;&gt;[root] module.vpc.output.firewall_name (expand) -->
<g id="edge4" class="edge">
<title>[root] module.vpc (close)&#45;&gt;[root] module.vpc.output.firewall_name (expand)</title>
<path fill="none" stroke="black" d="M1562.89,-436.85C1481.87,-425.41 1359.91,-408.2 1270.08,-395.52"/>
<polygon fill="black" stroke="black" points="1270.51,-392.05 1260.12,-394.12 1269.53,-398.98 1270.51,-392.05"/>
</g>
<!-- [root] module.vpc.output.network_name (expand) -->
<g id="node16" class="node">
<title>[root] module.vpc.output.network_name (expand)</title>
<ellipse fill="none" stroke="black" cx="1649" cy="-378" rx="240.46" ry="18"/>
<text text-anchor="middle" x="1649" y="-374.3" font-family="Times,serif" font-size="14.00">[root] module.vpc.output.network_name (expand)</text>
</g>
<!-- [root] module.vpc (close)&#45;&gt;[root] module.vpc.output.network_name (expand) -->
<g id="edge5" class="edge">
<title>[root] module.vpc (close)&#45;&gt;[root] module.vpc.output.network_name (expand)</title>
<path fill="none" stroke="black" d="M1649,-431.7C1649,-423.98 1649,-414.71 1649,-406.11"/>
<polygon fill="black" stroke="black" points="1652.5,-406.1 1649,-396.1 1645.5,-406.1 1652.5,-406.1"/>
</g>
<!-- [root] module.vpc (close)&#45;&gt;[root] module.vpc.output.project_id (expand) -->
<g id="edge6" class="edge">
<title>[root] module.vpc (close)&#45;&gt;[root] module.vpc.output.project_id (expand)</title>
<path fill="none" stroke="black" d="M1770.15,-444.93C1878.37,-441.35 2041.26,-436.08 2183,-432 2804.73,-414.1 2960.8,-427.23 3582,-396 3604,-394.89 3627.19,-393.46 3650,-391.9"/>
<polygon fill="black" stroke="black" points="3650.36,-395.38 3660.1,-391.2 3649.88,-388.4 3650.36,-395.38"/>
</g>
<!-- [root] module.vpc.output.project_name (expand) -->
<g id="node18" class="node">
<title>[root] module.vpc.output.project_name (expand)</title>
<ellipse fill="none" stroke="black" cx="2598" cy="-378" rx="235.06" ry="18"/>
<text text-anchor="middle" x="2598" y="-374.3" font-family="Times,serif" font-size="14.00">[root] module.vpc.output.project_name (expand)</text>
</g>
<!-- [root] module.vpc (close)&#45;&gt;[root] module.vpc.output.project_name (expand) -->
<g id="edge7" class="edge">
<title>[root] module.vpc (close)&#45;&gt;[root] module.vpc.output.project_name (expand)</title>
<path fill="none" stroke="black" d="M1758.33,-440.94C1921.68,-428.89 2231,-406.07 2425.17,-391.75"/>
<polygon fill="black" stroke="black" points="2425.48,-395.24 2435.19,-391.01 2424.96,-388.25 2425.48,-395.24"/>
</g>
<!-- [root] module.vpc (close)&#45;&gt;[root] module.vpc.output.vpc_name (expand) -->
<g id="edge8" class="edge">
<title>[root] module.vpc (close)&#45;&gt;[root] module.vpc.output.vpc_name (expand)</title>
<path fill="none" stroke="black" d="M1733.45,-436.61C1811.57,-425.14 1928.23,-408.02 2014.08,-395.42"/>
<polygon fill="black" stroke="black" points="2014.74,-398.86 2024.13,-393.95 2013.73,-391.94 2014.74,-398.86"/>
</g>
<!-- [root] module.vpc.output.firewall_name (expand)&#45;&gt;[root] module.vpc.google_compute_firewall.allow&#45;http (expand) -->
<g id="edge26" class="edge">
<title>[root] module.vpc.output.firewall_name (expand)&#45;&gt;[root] module.vpc.google_compute_firewall.allow&#45;http (expand)</title>
<path fill="none" stroke="black" d="M1260.01,-361.9C1335.66,-351.22 1437.52,-336.85 1518.03,-325.48"/>
<polygon fill="black" stroke="black" points="1518.83,-328.91 1528.24,-324.04 1517.85,-321.97 1518.83,-328.91"/>
</g>
<!-- [root] module.vpc.output.network_name (expand)&#45;&gt;[root] module.vpc.google_compute_firewall.allow&#45;http (expand) -->
<g id="edge27" class="edge">
<title>[root] module.vpc.output.network_name (expand)&#45;&gt;[root] module.vpc.google_compute_firewall.allow&#45;http (expand)</title>
<path fill="none" stroke="black" d="M1649,-359.7C1649,-351.98 1649,-342.71 1649,-334.11"/>
<polygon fill="black" stroke="black" points="1652.5,-334.1 1649,-324.1 1645.5,-334.1 1652.5,-334.1"/>
</g>
<!-- [root] module.vpc.output.project_id (expand)&#45;&gt;[root] module.vpc.google_project.team3&#45;gcp&#45;project (expand) -->
<g id="edge28" class="edge">
<title>[root] module.vpc.output.project_id (expand)&#45;&gt;[root] module.vpc.google_project.team3&#45;gcp&#45;project (expand)</title>
<path fill="none" stroke="black" d="M3686.36,-363.09C3590.44,-352.2 3456.3,-336.98 3351.94,-325.15"/>
<polygon fill="black" stroke="black" points="3352.27,-321.66 3341.94,-324.01 3351.48,-328.62 3352.27,-321.66"/>
</g>
<!-- [root] module.vpc.output.project_name (expand)&#45;&gt;[root] module.vpc.google_project.team3&#45;gcp&#45;project (expand) -->
<g id="edge29" class="edge">
<title>[root] module.vpc.output.project_name (expand)&#45;&gt;[root] module.vpc.google_project.team3&#45;gcp&#45;project (expand)</title>
<path fill="none" stroke="black" d="M2720.36,-362.58C2812.21,-351.76 2938.63,-336.86 3037.47,-325.21"/>
<polygon fill="black" stroke="black" points="3038.03,-328.67 3047.55,-324.02 3037.21,-321.72 3038.03,-328.67"/>
</g>
<!-- [root] module.vpc.output.vpc_name (expand)&#45;&gt;[root] module.vpc.google_compute_network.vpcglobal (expand) -->
<g id="edge30" class="edge">
<title>[root] module.vpc.output.vpc_name (expand)&#45;&gt;[root] module.vpc.google_compute_network.vpcglobal (expand)</title>
<path fill="none" stroke="black" d="M2103.68,-359.87C2070.63,-334.5 2008.56,-286.85 1971.38,-258.32"/>
<polygon fill="black" stroke="black" points="1973.46,-255.5 1963.39,-252.19 1969.2,-261.05 1973.46,-255.5"/>
</g>
<!-- [root] module.vpc.var.billing_acct (expand)&#45;&gt;[root] module.vpc (expand) -->
<g id="edge37" class="edge">
<title>[root] module.vpc.var.billing_acct (expand)&#45;&gt;[root] module.vpc (expand)</title>
<path fill="none" stroke="black" d="M2806.88,-76.65C2655.25,-63.28 2416.02,-42.19 2272.82,-29.56"/>
<polygon fill="black" stroke="black" points="2272.95,-26.06 2262.68,-28.67 2272.34,-33.03 2272.95,-26.06"/>
</g>
<!-- [root] module.vpc.var.firewall_name (expand)&#45;&gt;[root] module.vpc (expand) -->
<g id="edge38" class="edge">
<title>[root] module.vpc.var.firewall_name (expand)&#45;&gt;[root] module.vpc (expand)</title>
<path fill="none" stroke="black" d="M1798.02,-73.85C1875.07,-61.95 1981.78,-45.46 2058.04,-33.67"/>
<polygon fill="black" stroke="black" points="2058.77,-37.1 2068.12,-32.12 2057.71,-30.18 2058.77,-37.1"/>
</g>
<!-- [root] module.vpc.var.network_tags (expand)&#45;&gt;[root] module.vpc (expand) -->
<g id="edge40" class="edge">
<title>[root] module.vpc.var.network_tags (expand)&#45;&gt;[root] module.vpc (expand)</title>
<path fill="none" stroke="black" d="M1396.6,-77.18C1574.51,-63.5 1864.18,-41.22 2028.62,-28.57"/>
<polygon fill="black" stroke="black" points="2029.08,-32.04 2038.78,-27.79 2028.54,-25.06 2029.08,-32.04"/>
</g>
<!-- [root] module.vpc.var.vpc_name (expand)&#45;&gt;[root] module.vpc (expand) -->
<g id="edge43" class="edge">
<title>[root] module.vpc.var.vpc_name (expand)&#45;&gt;[root] module.vpc (expand)</title>
<path fill="none" stroke="black" d="M1895.05,-143.85C1918.05,-119.42 1958.54,-77.01 1967,-72 1995.81,-54.95 2030.4,-43.14 2061.89,-35.08"/>
<polygon fill="black" stroke="black" points="2063.12,-38.38 2071.99,-32.59 2061.44,-31.58 2063.12,-38.38"/>
</g>
<!-- [root] module.vpc.var.labels (expand)&#45;&gt;[root] module.vpc (expand) -->
<g id="edge39" class="edge">
<title>[root] module.vpc.var.labels (expand)&#45;&gt;[root] module.vpc (expand)</title>
<path fill="none" stroke="black" d="M3185.9,-143.88C3187.13,-123.36 3185.55,-89.54 3165,-72 3132.53,-44.3 2567.72,-28.14 2296.33,-21.94"/>
<polygon fill="black" stroke="black" points="2296.09,-18.43 2286.01,-21.71 2295.93,-25.43 2296.09,-18.43"/>
</g>
<!-- [root] module.vpc.var.project_name (expand)&#45;&gt;[root] module.vpc (expand) -->
<g id="edge41" class="edge">
<title>[root] module.vpc.var.project_name (expand)&#45;&gt;[root] module.vpc (expand)</title>
<path fill="none" stroke="black" d="M3414.07,-215.96C3408.68,-196.15 3397.15,-163.65 3376,-144 3310.76,-83.38 3276.11,-90.51 3189,-72 3023.36,-36.81 2542.06,-24.72 2298.22,-20.78"/>
<polygon fill="black" stroke="black" points="2297.91,-17.28 2287.86,-20.62 2297.8,-24.28 2297.91,-17.28"/>
</g>
<!-- [root] module.vpc.provider[&quot;registry.terraform.io/hashicorp/google&quot;] (close) -->
<g id="node27" class="node">
<title>[root] module.vpc.provider[&quot;registry.terraform.io/hashicorp/google&quot;] (close)</title>
<ellipse fill="none" stroke="black" cx="3212" cy="-378" rx="360.94" ry="18"/>
<text text-anchor="middle" x="3212" y="-374.3" font-family="Times,serif" font-size="14.00">[root] module.vpc.provider[&quot;registry.terraform.io/hashicorp/google&quot;] (close)</text>
</g>
<!-- [root] module.vpc.provider[&quot;registry.terraform.io/hashicorp/google&quot;] (close)&#45;&gt;[root] module.vpc.google_compute_firewall.allow&#45;http (expand) -->
<g id="edge31" class="edge">
<title>[root] module.vpc.provider[&quot;registry.terraform.io/hashicorp/google&quot;] (close)&#45;&gt;[root] module.vpc.google_compute_firewall.allow&#45;http (expand)</title>
<path fill="none" stroke="black" d="M2957.24,-365.24C2918.63,-363.48 2879.26,-361.68 2842,-360 2486.6,-343.94 2071.63,-325.6 1836.63,-315.25"/>
<polygon fill="black" stroke="black" points="1836.76,-311.75 1826.62,-314.81 1836.45,-318.74 1836.76,-311.75"/>
</g>
<!-- [root] module.vpc.provider[&quot;registry.terraform.io/hashicorp/google&quot;] (close)&#45;&gt;[root] module.vpc.google_project.team3&#45;gcp&#45;project (expand) -->
<g id="edge32" class="edge">
<title>[root] module.vpc.provider[&quot;registry.terraform.io/hashicorp/google&quot;] (close)&#45;&gt;[root] module.vpc.google_project.team3&#45;gcp&#45;project (expand)</title>
<path fill="none" stroke="black" d="M3207.06,-359.7C3204.83,-351.9 3202.15,-342.51 3199.67,-333.83"/>
<polygon fill="black" stroke="black" points="3203,-332.76 3196.89,-324.1 3196.27,-334.68 3203,-332.76"/>
</g>
<!-- [root] module.vpc.var.region (expand)&#45;&gt;[root] module.vpc (expand) -->
<g id="edge42" class="edge">
<title>[root] module.vpc.var.region (expand)&#45;&gt;[root] module.vpc (expand)</title>
<path fill="none" stroke="black" d="M2451.33,-73.81C2388.59,-62.28 2302.59,-46.48 2239.04,-34.81"/>
<polygon fill="black" stroke="black" points="2239.5,-31.33 2229.04,-32.97 2238.24,-38.22 2239.5,-31.33"/>
</g>
<!-- [root] module.vpc.var.zone (expand)&#45;&gt;[root] module.vpc (expand) -->
<g id="edge44" class="edge">
<title>[root] module.vpc.var.zone (expand)&#45;&gt;[root] module.vpc (expand)</title>
<path fill="none" stroke="black" d="M2153,-71.7C2153,-63.98 2153,-54.71 2153,-46.11"/>
<polygon fill="black" stroke="black" points="2156.5,-46.1 2153,-36.1 2149.5,-46.1 2156.5,-46.1"/>
</g>
<!-- [root] provider[&quot;registry.terraform.io/hashicorp/null&quot;] (close) -->
<g id="node30" class="node">
<title>[root] provider[&quot;registry.terraform.io/hashicorp/null&quot;] (close)</title>
<ellipse fill="none" stroke="black" cx="608" cy="-450" rx="291.65" ry="18"/>
<text text-anchor="middle" x="608" y="-446.3" font-family="Times,serif" font-size="14.00">[root] provider[&quot;registry.terraform.io/hashicorp/null&quot;] (close)</text>
</g>
<!-- [root] provider[&quot;registry.terraform.io/hashicorp/null&quot;] (close)&#45;&gt;[root] module.vpc.null_resource.enable&#45;apis (expand) -->
<g id="edge47" class="edge">
<title>[root] provider[&quot;registry.terraform.io/hashicorp/null&quot;] (close)&#45;&gt;[root] module.vpc.null_resource.enable&#45;apis (expand)</title>
<path fill="none" stroke="black" d="M571.69,-432.05C551.21,-422.5 525.42,-410.46 503.58,-400.27"/>
<polygon fill="black" stroke="black" points="505.04,-397.09 494.5,-396.03 502.08,-403.43 505.04,-397.09"/>
</g>
<!-- [root] provider[&quot;registry.terraform.io/hashicorp/null&quot;] (close)&#45;&gt;[root] module.vpc.null_resource.set&#45;project (expand) -->
<g id="edge48" class="edge">
<title>[root] provider[&quot;registry.terraform.io/hashicorp/null&quot;] (close)&#45;&gt;[root] module.vpc.null_resource.set&#45;project (expand)</title>
<path fill="none" stroke="black" d="M644.31,-432.05C664.79,-422.5 690.58,-410.46 712.42,-400.27"/>
<polygon fill="black" stroke="black" points="713.92,-403.43 721.5,-396.03 710.96,-397.09 713.92,-403.43"/>
</g>
<!-- [root] provider[&quot;registry.terraform.io/hashicorp/null&quot;] (close)&#45;&gt;[root] module.vpc.null_resource.unset&#45;project (expand) -->
<g id="edge49" class="edge">
<title>[root] provider[&quot;registry.terraform.io/hashicorp/null&quot;] (close)&#45;&gt;[root] module.vpc.null_resource.unset&#45;project (expand)</title>
<path fill="none" stroke="black" d="M504.13,-433.16C434.8,-422.59 343.36,-408.64 270.63,-397.55"/>
<polygon fill="black" stroke="black" points="270.91,-394.05 260.49,-396 269.85,-400.97 270.91,-394.05"/>
</g>
<!-- [root] provider[&quot;registry.terraform.io/hashicorp/random&quot;] (close) -->
<g id="node31" class="node">
<title>[root] provider[&quot;registry.terraform.io/hashicorp/random&quot;] (close)</title>
<ellipse fill="none" stroke="black" cx="3932" cy="-306" rx="309.25" ry="18"/>
<text text-anchor="middle" x="3932" y="-302.3" font-family="Times,serif" font-size="14.00">[root] provider[&quot;registry.terraform.io/hashicorp/random&quot;] (close)</text>
</g>
<!-- [root] provider[&quot;registry.terraform.io/hashicorp/random&quot;] (close)&#45;&gt;[root] module.vpc.random_password.password (expand) -->
<g id="edge50" class="edge">
<title>[root] provider[&quot;registry.terraform.io/hashicorp/random&quot;] (close)&#45;&gt;[root] module.vpc.random_password.password (expand)</title>
<path fill="none" stroke="black" d="M3902.23,-288.05C3885.88,-278.75 3865.41,-267.11 3847.83,-257.1"/>
<polygon fill="black" stroke="black" points="3849.35,-253.94 3838.93,-252.03 3845.89,-260.02 3849.35,-253.94"/>
</g>
<!-- [root] root -->
<g id="node32" class="node">
<title>[root] root</title>
<ellipse fill="none" stroke="black" cx="2805" cy="-522" rx="58.49" ry="18"/>
<text text-anchor="middle" x="2805" y="-518.3" font-family="Times,serif" font-size="14.00">[root] root</text>
</g>
<!-- [root] root&#45;&gt;[root] output.project_id -->
<g id="edge53" class="edge">
<title>[root] root&#45;&gt;[root] output.project_id</title>
<path fill="none" stroke="black" d="M2858.85,-514.91C2968.1,-502.56 3216.28,-474.49 3344.31,-460.01"/>
<polygon fill="black" stroke="black" points="3344.9,-463.47 3354.44,-458.87 3344.11,-456.51 3344.9,-463.47"/>
</g>
<!-- [root] root&#45;&gt;[root] output.vpc_name -->
<g id="edge54" class="edge">
<title>[root] root&#45;&gt;[root] output.vpc_name</title>
<path fill="none" stroke="black" d="M2751.95,-514.16C2656.23,-501.82 2454.18,-475.77 2341.75,-461.28"/>
<polygon fill="black" stroke="black" points="2342.18,-457.81 2331.82,-460 2341.29,-464.75 2342.18,-457.81"/>
</g>
<!-- [root] root&#45;&gt;[root] module.vpc (close) -->
<g id="edge51" class="edge">
<title>[root] root&#45;&gt;[root] module.vpc (close)</title>
<path fill="none" stroke="black" d="M2748.07,-517.55C2570.01,-506.77 2020.82,-473.51 1772.81,-458.5"/>
<polygon fill="black" stroke="black" points="1772.86,-454.99 1762.67,-457.88 1772.44,-461.98 1772.86,-454.99"/>
</g>
<!-- [root] root&#45;&gt;[root] module.vpc.provider[&quot;registry.terraform.io/hashicorp/google&quot;] (close) -->
<g id="edge52" class="edge">
<title>[root] root&#45;&gt;[root] module.vpc.provider[&quot;registry.terraform.io/hashicorp/google&quot;] (close)</title>
<path fill="none" stroke="black" d="M2842.2,-508.02C2913.34,-483.2 3069.14,-428.84 3154.04,-399.22"/>
<polygon fill="black" stroke="black" points="3155.24,-402.51 3163.53,-395.91 3152.94,-395.9 3155.24,-402.51"/>
</g>
<!-- [root] root&#45;&gt;[root] provider[&quot;registry.terraform.io/hashicorp/null&quot;] (close) -->
<g id="edge55" class="edge">
<title>[root] root&#45;&gt;[root] provider[&quot;registry.terraform.io/hashicorp/null&quot;] (close)</title>
<path fill="none" stroke="black" d="M2747.08,-519.15C2482.75,-510.73 1381.77,-475.65 870.73,-459.37"/>
<polygon fill="black" stroke="black" points="870.74,-455.87 860.64,-459.05 870.52,-462.87 870.74,-455.87"/>
</g>
<!-- [root] root&#45;&gt;[root] provider[&quot;registry.terraform.io/hashicorp/random&quot;] (close) -->
<g id="edge56" class="edge">
<title>[root] root&#45;&gt;[root] provider[&quot;registry.terraform.io/hashicorp/random&quot;] (close)</title>
<path fill="none" stroke="black" d="M2863.36,-519.64C3097.23,-513.59 3957.89,-485.35 4036,-396 4046.53,-383.95 4044.36,-373.64 4036,-360 4027.58,-346.26 4014.36,-335.95 4000.14,-328.25"/>
<polygon fill="black" stroke="black" points="4001.69,-325.12 3991.18,-323.79 3998.57,-331.38 4001.69,-325.12"/>
</g>
</g>
</svg>
